<svg xmlns="http://www.w3.org/2000/svg" viewBox="0 0 64 64" width="64" height="64">
  <rect width="64" height="64" rx="16" fill="#1B6B4C"/>
  <g fill="none" stroke="#fff" stroke-width="3.4" stroke-linecap="round" stroke-linejoin="round">
    <path d="M16 40v6a2 2 0 0 0 2 2h3a2 2 0 0 0 2-2v-2h18v2a2 2 0 0 0 2 2h3a2 2 0 0 0 2-2v-6"/>
    <path d="M15 40l3-11a4 4 0 0 1 3.8-2.8h20.4A4 4 0 0 1 46 29l3 11z"/>
    <path d="M15 40h34"/>
  </g>
  <circle cx="23" cy="40" r="3.2" fill="#fff"/>
  <circle cx="41" cy="40" r="3.2" fill="#fff"/>
</svg>
